<?xml version="1.0" encoding="UTF-8"?>
<svg width="263px" height="48px" viewBox="0 0 263 48" version="1.1" xmlns="http://www.w3.org/2000/svg" xmlns:xlink="http://www.w3.org/1999/xlink">
    <!-- Generator: Sketch 56.3 (81716) - https://sketch.com -->
    <title>Group 3</title>
    <desc>Created with Sketch.</desc>
    <defs>
        <polygon id="path-1" points="0.0004 -0.0003 262.181 -0.0003 262.181 48.0007 0.0004 48.0007"></polygon>
    </defs>
    <g id="Page-1" stroke="none" stroke-width="1" fill="none" fill-rule="evenodd">
        <g id="Group-3">
            <mask id="mask-2" fill="white">
                <use xlink:href="#path-1"></use>
            </mask>
            <g id="Clip-2"></g>
            <path d="M246.1754,48.0007 L242.2854,42.5227 L234.0784,29.8717 C239.0314,28.5307 244.5684,22.4497 244.5684,15.6087 C244.5684,6.2747 237.2514,0.0037 227.2214,0.0037 L204.8384,0.0037 C204.7584,0.0037 204.6944,0.0677 204.6944,0.1477 L204.6944,44.9357 L187.5164,0.4617 C187.4094,0.1847 187.1434,0.0017 186.8464,0.0017 L176.3034,0.0017 C174.7944,0.0017 173.4404,0.9307 172.8964,2.3387 L157.3894,42.5127 L155.2784,47.9837 L167.2474,47.9947 L180.6034,11.5327 L187.5024,29.6537 L180.1924,29.6537 C178.6294,29.6537 177.2404,30.6477 176.7364,32.1267 L174.3074,39.2527 L189.7614,39.2527 C190.3594,39.2527 190.8964,39.6217 191.1114,40.1807 L192.6774,44.2717 C193.5364,46.5117 195.6864,47.9917 198.0864,47.9917 L204.6944,47.9917 L204.6944,47.9937 L211.4564,47.9937 C213.8554,47.9937 215.8004,46.0477 215.8004,43.6497 L215.8004,9.6187 L226.3424,9.6187 C230.4264,9.6187 233.1704,11.7697 233.1704,16.1157 C233.1704,19.7397 230.1034,22.5687 225.9114,22.5687 L218.3214,22.5687 C218.0354,22.5687 217.8604,22.8837 218.0114,23.1257 L231.0754,44.2357 C232.3734,46.5557 234.8244,47.9937 237.4834,47.9937 L240.1744,47.9937 L240.1714,48.0007 L246.1754,48.0007 Z M68.3944,0.4667 C68.2874,0.1907 68.0214,0.0077 67.7244,0.0077 L57.1814,0.0077 C55.6724,0.0077 54.3184,0.9357 53.7754,2.3447 L38.2674,42.5187 L38.0294,43.1357 L37.5914,42.5187 L29.3834,29.8687 C34.3374,28.5267 39.8744,22.4457 39.8744,15.6047 C39.8744,6.2707 32.5574,-0.0003 22.5274,-0.0003 L0.1444,-0.0003 C0.0644,-0.0003 0.0004,0.0647 0.0004,0.1447 L0.0004,47.9887 L11.1064,47.9887 L11.1064,9.6157 L21.6484,9.6157 C25.7324,9.6157 28.4764,11.7667 28.4764,16.1117 C28.4764,19.7357 25.4084,22.5657 21.2174,22.5657 L13.6274,22.5657 C13.3414,22.5657 13.1664,22.8797 13.3164,23.1227 L26.3814,44.2327 C27.6794,46.5517 30.1304,47.9887 32.7894,47.9887 L35.4804,47.9887 L35.4774,47.9967 L41.4814,47.9967 L41.4794,47.9947 L44.0874,47.9967 C46.5134,47.9967 48.6814,46.4817 49.5164,44.2037 L61.4824,11.5387 L68.3804,29.6597 L61.0704,29.6597 C59.5084,29.6597 58.1184,30.6537 57.6144,32.1327 L55.1854,39.2587 L70.6394,39.2587 C71.2384,39.2587 71.7744,39.6277 71.9894,40.1867 L74.9814,47.9967 L86.7524,47.9967 L68.3944,0.4667 Z M106.9464,2.6837 L96.8424,18.5777 L85.2474,0.3367 C85.1154,0.1297 84.8874,0.0037 84.6414,0.0037 L73.6644,0.0037 C73.0864,0.0037 72.7424,0.6477 73.0634,1.1287 L91.2894,28.1087 L91.2894,47.9927 L102.3964,47.9927 L102.3964,28.1087 L121.2994,0.0037 L111.8254,0.0037 C109.8474,0.0037 108.0074,1.0147 106.9464,2.6837 L106.9464,2.6837 Z M148.7814,23.9637 C148.7814,15.2497 142.9864,9.6187 134.0154,9.6187 L125.5124,9.6187 L125.5124,38.3777 L133.9434,38.3777 C142.6794,38.3777 148.7814,32.4507 148.7814,23.9637 L148.7814,23.9637 Z M160.1064,23.9637 C160.1064,38.3367 149.6214,47.9927 134.0154,47.9927 L114.8884,47.9927 L114.8884,14.8657 L124.8854,0.0037 L133.9434,0.0037 C149.5924,0.0037 160.1064,9.6327 160.1064,23.9637 L160.1064,23.9637 Z M262.1814,41.3337 C262.1814,45.0117 259.1994,47.9927 255.5214,47.9927 C251.8444,47.9927 248.8624,45.0117 248.8624,41.3337 C248.8624,37.6557 251.8444,34.6747 255.5214,34.6747 C259.1994,34.6747 262.1814,37.6557 262.1814,41.3337 L262.1814,41.3337 Z" id="Fill-1" fill="#000000" mask="url(#mask-2)"></path>
        </g>
    </g>
</svg>